<svg width="407" height="407" version="1.1" xmlns="http://www.w3.org/2000/svg" desc="Created with imagetracer.js version 1.2.6" ><path fill="rgb(248,249,249)" stroke="rgb(248,249,249)" stroke-width="1" opacity="0.996078431372549" d="M 32.5 21 L 38 21.5 L 30.5 23 L 26 26 L 22 32.5 L 21.5 37 L 21 32.5 Q 22.3 26.8 26.5 24 L 32.5 21 Z " /><path fill="rgb(248,249,249)" stroke="rgb(248,249,249)" stroke-width="1" opacity="0.996078431372549" d="M 371.5 21 L 375.5 21 L 383 25 L 386 31.5 L 385 31.5 L 383.5 29 L 382 29 L 382 26 Q 378.3 27.5 379 24.5 Q 377.3 21.2 371.5 22 L 371.5 21 Z " /><path fill="rgb(248,249,249)" stroke="rgb(248,249,249)" stroke-width="1" opacity="0.996078431372549" d="M 34.5 25 L 373.5 25 L 381 30.5 L 383 34.5 L 383 265.5 L 384.5 267 L 388.5 268 Q 390.2 265.3 392 269.5 L 391.5 271 L 394 272.5 L 394.5 275 L 395 272 L 397 271.5 L 394.5 268 L 389.5 264 L 387 264 L 387.5 259 L 388 263 Q 394.3 264.1 398 269.5 Q 401 273.5 400 281.5 L 398.5 285 L 397 278.5 L 398 278.5 L 398.5 280 L 399 276.5 L 397.5 273 L 396 281.5 Q 398.3 282.8 397 287.5 L 396 288.5 L 396 380.5 L 397 380.5 L 397 289.5 L 399 289 L 399 375.5 L 398 376.5 L 399 378.5 L 397.5 383 L 396 382.5 L 396.5 385 L 398 384.5 L 396 390.5 L 398 389.5 L 399.5 380 L 400 386.5 L 395 397 L 386.5 400 L 379.5 400 L 379.5 399 L 384.5 398 L 386.5 399 L 391 396.5 L 389 395.5 L 389.5 394 L 387 395.5 L 387.5 397 L 384.5 396 L 382.5 398 L 288.5 398 Q 286.7 395.3 280.5 397 L 278.5 398 L 274.5 397 L 274.5 398 L 281 399.5 L 274.5 400 L 268 397 L 261.5 388 L 259 387.5 L 264 387 L 264 389.5 L 271.5 397 L 272 393.5 L 269.5 390 Q 265.5 390.5 265 387.5 L 265.5 385 L 266.5 388 L 267 383 L 34.5 383 L 27 377.5 L 25 373.5 L 25 34.5 L 30.5 27 L 34.5 25 Z M 36 26 L 33 27 Q 27 29 26 36 L 26 373 L 27 376 Q 29 381 36 382 L 267 382 L 272 392 L 279 395 L 384 395 L 390 392 L 395 384 L 395 279 L 392 272 L 384 268 L 382 267 L 382 35 L 381 33 Q 379 27 373 26 L 36 26 Z M 396 387 L 393 391 L 394 392 L 396 389 L 396 387 Z M 274 394 L 274 395 L 276 395 L 274 394 Z M 289 396 L 289 397 L 376 397 L 289 396 Z " /><path fill="rgb(248,249,249)" stroke="rgb(248,249,249)" stroke-width="1" opacity="0.996078431372549" d="M 386.5 33 L 387 36.5 L 386 36.5 L 386.5 33 Z " /><path fill="rgb(248,249,249)" stroke="rgb(248,249,249)" stroke-width="1" opacity="0.996078431372549" d="M 166 64 L 241.5 64 L 242 65.5 L 240.5 65 L 238.5 66 L 172.5 66 L 169.5 65 L 166 66 L 166 64 Z " /><path fill="rgb(248,249,249)" stroke="rgb(248,249,249)" stroke-width="1" opacity="0.996078431372549" d="M 268.5 64 L 344 64 L 344 139.5 L 343 139.5 L 342 136.5 L 343 135.5 L 343 65 L 340.5 66 L 338.5 65 L 336.5 65 L 334.5 66 L 271.5 66 L 268.5 65 L 268.5 64 Z " /><path fill="rgb(248,249,249)" stroke="rgb(248,249,249)" stroke-width="1" opacity="0.996078431372549" d="M 337.5 67 Q 340.1 69.4 339 75.5 L 338 75.5 L 337.5 67 Z " /><path fill="rgb(248,249,249)" stroke="rgb(248,249,249)" stroke-width="1" opacity="0.996078431372549" d="M 340.5 67 L 341 130.5 L 340 130.5 L 340.5 67 Z " /><path fill="rgb(248,249,249)" stroke="rgb(248,249,249)" stroke-width="1" opacity="0.996078431372549" d="M 166.5 68 L 167 135.5 L 166 135.5 L 166.5 68 Z " /><path fill="rgb(248,249,249)" stroke="rgb(248,249,249)" stroke-width="1" opacity="0.996078431372549" d="M 272.5 69 L 273 135 L 337.5 135 L 338 134.5 L 338 127.5 L 339 127.5 L 339.5 136 L 340.5 132 L 341 135.5 L 339.5 138 L 339 136 L 273.5 136 L 272 134.5 L 272.5 69 Z " /><path fill="rgb(248,249,249)" stroke="rgb(248,249,249)" stroke-width="1" opacity="0.996078431372549" d="M 170.5 70 L 171 125.5 L 170 125.5 L 170.5 70 Z " /><path fill="rgb(248,249,249)" stroke="rgb(248,249,249)" stroke-width="1" opacity="0.996078431372549" d="M 237.5 70 L 238 125.5 L 237 125.5 L 237.5 70 Z " /><path fill="rgb(248,249,249)" stroke="rgb(248,249,249)" stroke-width="1" opacity="0.996078431372549" d="M 241.5 72 L 242 135.5 L 241 135.5 L 241.5 72 Z " /><path fill="rgb(248,249,249)" stroke="rgb(248,249,249)" stroke-width="1" opacity="0.996078431372549" d="M 237.5 127 L 238 129.5 L 237 129.5 L 237.5 127 Z " /><path fill="rgb(248,249,249)" stroke="rgb(248,249,249)" stroke-width="1" opacity="0.996078431372549" d="M 237.5 131 L 238 134.5 L 236.5 136 L 171.5 136 L 170 132.5 L 171 132.5 L 171.5 135 L 237 135 L 237.5 131 Z " /><path fill="rgb(248,249,249)" stroke="rgb(248,249,249)" stroke-width="1" opacity="0.996078431372549" d="M 64 166 Q 66.7 164.9 66 167.5 L 65 168.5 L 65 239.5 L 66 242 L 64 241.5 L 64 166 Z " /><path fill="rgb(248,249,249)" stroke="rgb(248,249,249)" stroke-width="1" opacity="0.996078431372549" d="M 68.5 166 L 71 166.5 L 68.5 167 L 68.5 166 Z " /><path fill="rgb(248,249,249)" stroke="rgb(248,249,249)" stroke-width="1" opacity="0.996078431372549" d="M 72.5 166 L 137 166.5 L 72.5 167 L 72.5 166 Z " /><path fill="rgb(248,249,249)" stroke="rgb(248,249,249)" stroke-width="1" opacity="0.996078431372549" d="M 169.5 166 L 242 166.5 L 169.5 167 L 169.5 166 Z " /><path fill="rgb(248,249,249)" stroke="rgb(248,249,249)" stroke-width="1" opacity="0.996078431372549" d="M 271.5 166 L 336 166.5 L 271.5 167 L 271.5 166 Z " /><path fill="rgb(248,249,249)" stroke="rgb(248,249,249)" stroke-width="1" opacity="0.996078431372549" d="M 337.5 166 L 340 166.5 L 337.5 167 L 337.5 166 Z " /><path fill="rgb(248,249,249)" stroke="rgb(248,249,249)" stroke-width="1" opacity="0.996078431372549" d="M 342 166 L 344 166.5 L 344 242 Q 341.3 243.1 342 240.5 L 343 239.5 L 343 168.5 L 342 166 Z " /><path fill="rgb(248,249,249)" stroke="rgb(248,249,249)" stroke-width="1" opacity="0.996078431372549" d="M 166.5 168 L 167 239.5 L 166 239.5 L 166.5 168 Z " /><path fill="rgb(248,249,249)" stroke="rgb(248,249,249)" stroke-width="1" opacity="0.996078431372549" d="M 337.5 168 L 339 171.5 L 337.5 171 L 335 170.5 L 337 170 L 337.5 168 Z " /><path fill="rgb(248,249,249)" stroke="rgb(248,249,249)" stroke-width="1" opacity="0.996078431372549" d="M 241.5 169 L 242 239.5 L 241 239.5 L 241.5 169 Z " /><path fill="rgb(248,249,249)" stroke="rgb(248,249,249)" stroke-width="1" opacity="0.996078431372549" d="M 70.5 170 L 127 170.5 L 70.5 171 L 69.5 172 L 70.5 170 Z " /><path fill="rgb(248,249,249)" stroke="rgb(248,249,249)" stroke-width="1" opacity="0.996078431372549" d="M 128.5 170 L 131 170.5 L 128.5 171 L 128.5 170 Z " /><path fill="rgb(248,249,249)" stroke="rgb(248,249,249)" stroke-width="1" opacity="0.996078431372549" d="M 132.5 170 L 136 171.5 L 136 236.5 L 134.5 238 L 131 237.5 L 135 237 L 135 171.5 L 132.5 171 L 132.5 170 Z " /><path fill="rgb(248,249,249)" stroke="rgb(248,249,249)" stroke-width="1" opacity="0.996078431372549" d="M 171.5 170 L 236 170.5 L 171 171 L 170.5 236 L 170 171.5 L 171.5 170 Z " /><path fill="rgb(248,249,249)" stroke="rgb(248,249,249)" stroke-width="1" opacity="0.996078431372549" d="M 275.5 170 L 334 170.5 L 275.5 171 L 275.5 170 Z " /><path fill="rgb(248,249,249)" stroke="rgb(248,249,249)" stroke-width="1" opacity="0.996078431372549" d="M 272.5 171 L 273 236.5 L 272 236.5 L 272.5 171 Z " /><path fill="rgb(248,249,249)" stroke="rgb(248,249,249)" stroke-width="1" opacity="0.996078431372549" d="M 67.5 172 L 68 238.5 L 67 238.5 L 67.5 172 Z " /><path fill="rgb(248,249,249)" stroke="rgb(248,249,249)" stroke-width="1" opacity="0.996078431372549" d="M 237.5 172 L 238 236.5 L 236.5 238 L 172.5 238 L 172.5 237 L 237 237 L 237.5 172 Z " /><path fill="rgb(248,249,249)" stroke="rgb(248,249,249)" stroke-width="1" opacity="0.996078431372549" d="M 340.5 176 L 341 239.5 L 340 239.5 L 340.5 176 Z " /><path fill="rgb(248,249,249)" stroke="rgb(248,249,249)" stroke-width="1" opacity="0.996078431372549" d="M 70 237 L 130 237.5 L 71.5 238 L 70.5 239 L 70 237 Z " /><path fill="rgb(248,249,249)" stroke="rgb(248,249,249)" stroke-width="1" opacity="0.996078431372549" d="M 274.5 237 L 337.5 237 L 338 238.5 L 336.5 238 L 274.5 238 L 274.5 237 Z " /><path fill="rgb(248,249,249)" stroke="rgb(248,249,249)" stroke-width="1" opacity="0.996078431372549" d="M 136.5 240 L 137.5 242 L 72 241.5 L 135.5 241 L 136.5 240 Z " /><path fill="rgb(248,249,249)" stroke="rgb(248,249,249)" stroke-width="1" opacity="0.996078431372549" d="M 68.5 241 L 71 241.5 L 68.5 242 L 68.5 241 Z " /><path fill="rgb(248,249,249)" stroke="rgb(248,249,249)" stroke-width="1" opacity="0.996078431372549" d="M 171.5 241 L 242 241.5 L 171.5 242 L 171.5 241 Z " /><path fill="rgb(248,249,249)" stroke="rgb(248,249,249)" stroke-width="1" opacity="0.996078431372549" d="M 271.5 241 L 336 241.5 L 271.5 242 L 271.5 241 Z " /><path fill="rgb(248,249,249)" stroke="rgb(248,249,249)" stroke-width="1" opacity="0.996078431372549" d="M 337.5 241 L 340 241.5 L 337.5 242 L 337.5 241 Z " /><path fill="rgb(248,249,249)" stroke="rgb(248,249,249)" stroke-width="1" opacity="0.996078431372549" d="M 384.5 264 L 388 265.5 L 385.5 266 L 384.5 264 Z " /><path fill="rgb(248,249,249)" stroke="rgb(248,249,249)" stroke-width="1" opacity="0.996078431372549" d="M 64 268 L 66 268.5 L 65 270.5 L 65 272.5 L 65 336.5 L 66 337.5 L 65 339.5 L 65 341.5 Q 64.3 343.8 66.5 343 L 68.5 343 L 70.5 342 L 71.5 343 L 135.5 343 L 137.5 343 L 140 343.5 L 64 344 L 64 268 Z " /><path fill="rgb(248,249,249)" stroke="rgb(248,249,249)" stroke-width="1" opacity="0.996078431372549" d="M 68.5 270 L 69 272 L 134.5 272 L 136 273.5 L 136 338.5 L 135 341 L 133 340.5 L 133.5 339 L 131 338.5 L 135 338 L 135 273 L 69.5 273 L 68 272.5 L 67.5 335 L 67 272.5 L 68.5 270 Z " /><path fill="rgb(248,249,249)" stroke="rgb(248,249,249)" stroke-width="1" opacity="0.996078431372549" d="M 166.5 272 L 167 339.5 L 166 339.5 L 166.5 272 Z " /><path fill="rgb(248,249,249)" stroke="rgb(248,249,249)" stroke-width="1" opacity="0.996078431372549" d="M 171.5 272 L 236.5 272 L 238 273.5 L 237.5 338 L 237 273 L 171.5 273 L 171.5 272 Z " /><path fill="rgb(248,249,249)" stroke="rgb(248,249,249)" stroke-width="1" opacity="0.996078431372549" d="M 241.5 272 L 242 335.5 L 241 335.5 L 241.5 272 Z " /><path fill="rgb(248,249,249)" stroke="rgb(248,249,249)" stroke-width="1" opacity="0.996078431372549" d="M 170.5 276 L 171 330.5 L 170 330.5 L 170.5 276 Z " /><path fill="rgb(248,249,249)" stroke="rgb(248,249,249)" stroke-width="1" opacity="0.996078431372549" d="M 292.5 293 L 312.5 293 L 314 294.5 L 315 296.5 L 315 363.5 L 311.5 369 L 304.5 369 L 304 367.5 L 302 364.5 L 302 304 L 292.5 304 L 289 300.5 L 290 294 L 292.5 293 Z M 295 294 L 294 297 Q 291 296 292 299 L 296 302 L 297 303 L 304 303 L 304 360 L 303 361 L 305 367 L 308 368 L 312 367 L 311 364 L 312 354 L 312 361 L 313 361 L 313 352 L 312 351 L 312 306 L 312 304 Q 314 302 313 298 L 311 295 L 295 294 Z " /><path fill="rgb(248,249,249)" stroke="rgb(248,249,249)" stroke-width="1" opacity="0.996078431372549" d="M 354.5 293 Q 360.8 291.8 362 295.5 L 363 299.5 L 347 318.5 L 361.5 320 L 368 325.5 L 372 332.5 L 374 346.5 L 371 357.5 L 365.5 364 Q 359.8 369.8 348.5 370 L 339.5 368 L 331 360.5 Q 325.1 353.4 326 339.5 L 327 338.5 L 328 327.5 L 335 313.5 L 351.5 295 L 354.5 293 Z M 358 294 Q 356 297 359 296 L 358 294 Z M 353 295 L 352 299 L 350 299 Q 351 302 348 301 L 344 307 L 344 310 L 343 309 Q 340 310 342 312 L 337 315 L 337 317 L 334 318 Q 334 322 337 322 L 339 317 L 349 305 Q 348 302 351 303 L 352 301 L 354 303 L 353 303 L 352 306 Q 351 308 354 307 L 355 304 L 358 304 L 356 303 L 359 302 L 360 297 L 359 297 L 353 295 Z M 349 307 L 344 314 Q 343 317 346 318 L 348 315 L 346 314 Q 347 311 349 313 L 349 312 Q 352 310 350 309 Q 351 306 349 307 Z M 344 317 L 343 319 L 341 318 Q 336 321 336 327 L 341 326 L 343 327 L 337 330 L 338 332 L 341 331 L 344 328 L 345 329 Q 351 331 353 328 Q 357 326 356 330 L 358 329 L 362 336 Q 364 335 363 332 L 356 326 L 345 326 Q 346 324 342 322 Q 341 318 345 320 L 344 317 Z M 334 320 L 332 322 L 333 325 L 333 328 L 332 325 L 328 336 L 328 351 L 330 353 Q 329 356 333 354 L 331 348 L 331 336 L 335 326 L 334 320 Z M 345 321 L 345 323 L 357 325 Q 360 326 361 324 L 356 321 L 352 322 L 345 321 Z M 362 324 Q 359 328 363 327 L 368 338 Q 370 351 365 357 L 359 363 L 351 365 L 342 363 L 343 368 L 351 368 L 359 366 L 363 361 L 365 362 L 368 359 L 368 355 L 371 352 L 372 348 L 371 336 Q 367 334 370 333 L 368 332 L 367 326 Q 363 327 362 324 Z M 348 330 L 345 331 L 339 339 Q 337 349 341 354 L 348 358 L 355 357 L 360 350 Q 362 338 358 333 L 352 330 L 348 330 Z M 366 334 L 365 337 L 366 337 L 366 334 Z M 337 335 L 335 337 Q 336 339 334 338 L 332 338 L 333 348 L 333 342 L 334 342 Q 336 347 333 349 L 335 351 L 336 356 L 334 354 L 332 358 L 334 360 L 336 359 L 337 357 L 340 359 L 340 361 L 338 360 Q 336 358 335 361 L 340 363 Q 343 364 342 361 L 349 363 Q 354 364 356 361 Q 359 362 358 359 L 361 359 L 365 350 Q 367 340 364 335 L 361 339 L 362 341 Q 364 347 361 349 L 362 351 L 362 354 L 361 352 L 360 355 L 358 356 L 358 358 Q 357 360 356 358 L 355 360 L 353 359 L 349 360 L 352 360 L 351 362 Q 349 359 345 360 L 345 359 L 344 358 L 342 358 L 338 356 L 340 355 L 337 353 L 338 351 L 337 346 L 338 343 Q 339 337 337 335 Z M 367 337 L 366 348 L 367 348 L 367 337 Z M 341 365 L 342 367 Q 343 364 341 365 Z " /><path fill="rgb(248,249,249)" stroke="rgb(248,249,249)" stroke-width="1" opacity="0.996078431372549" d="M 300.5 297 L 307.5 298 L 309 299.5 L 310 302.5 L 310 361.5 L 308.5 364 L 307 362.5 L 307 305.5 L 303.5 300 L 297 298.5 L 300.5 297 Z M 307 299 L 308 301 Q 309 298 307 299 Z M 309 303 L 308 354 L 309 354 L 309 303 Z " /><path fill="rgb(248,249,249)" stroke="rgb(248,249,249)" stroke-width="1" opacity="0.996078431372549" d="M 170.5 335 L 172 338.5 L 170 339 L 170.5 335 Z " /><path fill="rgb(248,249,249)" stroke="rgb(248,249,249)" stroke-width="1" opacity="0.996078431372549" d="M 67.5 337 L 68 340.5 L 67 340.5 L 67.5 337 Z " /><path fill="rgb(248,249,249)" stroke="rgb(248,249,249)" stroke-width="1" opacity="0.996078431372549" d="M 69.5 337 L 71 340.5 L 70 340.5 L 69.5 337 Z " /><path fill="rgb(248,249,249)" stroke="rgb(248,249,249)" stroke-width="1" opacity="0.996078431372549" d="M 173.5 338 L 176 338.5 L 173.5 339 L 173.5 338 Z " /><path fill="rgb(248,249,249)" stroke="rgb(248,249,249)" stroke-width="1" opacity="0.996078431372549" d="M 80.5 340 L 127 340.5 L 80.5 341 L 80.5 340 Z " /><path fill="rgb(248,249,249)" stroke="rgb(248,249,249)" stroke-width="1" opacity="0.996078431372549" d="M 177.5 340 L 239 340.5 L 177.5 341 L 177.5 340 Z " /><path fill="rgb(248,249,249)" stroke="rgb(248,249,249)" stroke-width="1" opacity="0.996078431372549" d="M 329.5 341 L 330 346.5 L 329 346.5 L 329.5 341 Z " /><path fill="rgb(248,249,249)" stroke="rgb(248,249,249)" stroke-width="1" opacity="0.996078431372549" d="M 166.5 342 L 167.5 343 L 240.5 343 L 242 342.5 L 241.5 344 L 166 344 L 166.5 342 Z " /><path fill="rgb(248,249,249)" stroke="rgb(248,249,249)" stroke-width="1" opacity="0.996078431372549" d="M 21.5 371 Q 21.5 377 24.5 380 L 26 379.5 L 26 382 Q 29.8 380.5 29 383.5 L 32 385.5 L 30.5 386 L 24 381.5 L 21 375.5 L 21.5 371 Z " /><path fill="rgb(248,249,249)" stroke="rgb(248,249,249)" stroke-width="1" opacity="0.996078431372549" d="M 34.5 386 L 38 386.5 L 34.5 387 L 34.5 386 Z " /><path fill="rgb(100,138,166)" stroke="rgb(100,138,166)" stroke-width="1" opacity="1" d="M 35.5 26 L 372.5 26 Q 378.6 27.4 381 32.5 L 382 34.5 L 382 266.5 L 383 267.5 L 278.5 268 L 271 272.5 L 268 278.5 L 267.5 383 L 266.5 382 L 35.5 382 Q 29.4 380.6 27 375.5 L 26 372.5 L 26 35.5 Q 27.4 29.4 32.5 27 L 35.5 26 Z M 166 64 L 166 140 L 242 140 L 242 64 L 166 64 Z M 268 64 L 268 140 L 344 140 L 344 64 L 268 64 Z M 64 166 L 64 242 L 140 242 L 140 166 L 64 166 Z M 166 166 L 166 242 L 242 242 L 242 166 L 166 166 Z M 268 166 L 268 242 L 344 242 L 344 166 L 268 166 Z M 64 268 L 64 344 L 140 344 L 140 268 L 64 268 Z M 166 268 L 166 344 L 242 344 L 242 268 L 166 268 Z " /><path fill="rgb(100,138,166)" stroke="rgb(100,138,166)" stroke-width="1" opacity="1" d="M 387.5 269 L 388.5 271 L 387.5 269 Z " /><path fill="rgb(100,138,166)" stroke="rgb(100,138,166)" stroke-width="1" opacity="1" d="M 294.5 292 L 312 292.5 L 294.5 293 L 294.5 292 Z " /><path fill="rgb(100,138,166)" stroke="rgb(100,138,166)" stroke-width="1" opacity="1" d="M 356.5 292 L 359 292.5 L 356.5 293 L 356.5 292 Z " /><path fill="rgb(100,138,166)" stroke="rgb(100,138,166)" stroke-width="1" opacity="1" d="M 313.5 293 L 315 295.5 L 314 295.5 L 313.5 293 Z " /><path fill="rgb(100,138,166)" stroke="rgb(100,138,166)" stroke-width="1" opacity="1" d="M 353.5 293 L 352.5 295 L 353.5 293 Z " /><path fill="rgb(100,138,166)" stroke="rgb(100,138,166)" stroke-width="1" opacity="1" d="M 289.5 295 L 289 296.5 L 288.5 300 L 288 296.5 L 289.5 295 Z " /><path fill="rgb(100,138,166)" stroke="rgb(100,138,166)" stroke-width="1" opacity="1" d="M 349.5 296 L 344.5 302 L 349.5 296 Z " /><path fill="rgb(100,138,166)" stroke="rgb(100,138,166)" stroke-width="1" opacity="1" d="M 289.5 301 L 291.5 304 L 289.5 301 Z " /><path fill="rgb(100,138,166)" stroke="rgb(100,138,166)" stroke-width="1" opacity="1" d="M 340.5 306 L 339.5 308 L 340.5 306 Z " /><path fill="rgb(100,138,166)" stroke="rgb(100,138,166)" stroke-width="1" opacity="1" d="M 351.5 312 L 350.5 314 L 351.5 312 Z " /><path fill="rgb(100,138,166)" stroke="rgb(100,138,166)" stroke-width="1" opacity="1" d="M 349.5 315 L 348.5 317 L 349.5 315 Z " /><path fill="rgb(100,138,166)" stroke="rgb(100,138,166)" stroke-width="1" opacity="1" d="M 332.5 318 L 331.5 320 L 332.5 318 Z " /><path fill="rgb(100,138,166)" stroke="rgb(100,138,166)" stroke-width="1" opacity="1" d="M 330.5 321 L 331 322.5 L 329.5 325 L 329 323.5 L 330.5 321 Z " /><path fill="rgb(100,138,166)" stroke="rgb(100,138,166)" stroke-width="1" opacity="1" d="M 368.5 326 L 369.5 328 L 368.5 326 Z " /><path fill="rgb(100,138,166)" stroke="rgb(100,138,166)" stroke-width="1" opacity="1" d="M 347.5 330 L 352 330.5 L 347.5 331 L 347.5 330 Z " /><path fill="rgb(100,138,166)" stroke="rgb(100,138,166)" stroke-width="1" opacity="1" d="M 344.5 331 L 341.5 335 L 344.5 331 Z " /><path fill="rgb(100,138,166)" stroke="rgb(100,138,166)" stroke-width="1" opacity="1" d="M 326.5 334 L 327 338.5 L 326 338.5 L 326.5 334 Z " /><path fill="rgb(100,138,166)" stroke="rgb(100,138,166)" stroke-width="1" opacity="1" d="M 373.5 338 L 374 340.5 L 373 340.5 L 373.5 338 Z " /><path fill="rgb(100,138,166)" stroke="rgb(100,138,166)" stroke-width="1" opacity="1" d="M 373.5 347 L 374 349.5 L 373 349.5 L 373.5 347 Z " /><path fill="rgb(100,138,166)" stroke="rgb(100,138,166)" stroke-width="1" opacity="1" d="M 326.5 348 L 327 350.5 L 326 350.5 L 326.5 348 Z " /><path fill="rgb(100,138,166)" stroke="rgb(100,138,166)" stroke-width="1" opacity="1" d="M 358.5 352 L 357.5 354 L 358.5 352 Z " /><path fill="rgb(100,138,166)" stroke="rgb(100,138,166)" stroke-width="1" opacity="1" d="M 341.5 353 L 346 356.5 L 344.5 357 L 341.5 353 Z " /><path fill="rgb(100,138,166)" stroke="rgb(100,138,166)" stroke-width="1" opacity="1" d="M 355.5 355 L 354.5 357 L 355.5 355 Z " /><path fill="rgb(100,138,166)" stroke="rgb(100,138,166)" stroke-width="1" opacity="1" d="M 328.5 356 L 329.5 358 L 328.5 356 Z " /><path fill="rgb(100,138,166)" stroke="rgb(100,138,166)" stroke-width="1" opacity="1" d="M 347.5 357 L 352 357.5 L 347.5 358 L 347.5 357 Z " /><path fill="rgb(100,138,166)" stroke="rgb(100,138,166)" stroke-width="1" opacity="1" d="M 332.5 362 L 333.5 364 L 332.5 362 Z " /><path fill="rgb(100,138,166)" stroke="rgb(100,138,166)" stroke-width="1" opacity="1" d="M 364.5 364 L 363.5 366 L 364.5 364 Z " /><path fill="rgb(100,138,166)" stroke="rgb(100,138,166)" stroke-width="1" opacity="1" d="M 302.5 365 L 304 367.5 L 302 366.5 L 302.5 365 Z " /><path fill="rgb(100,138,166)" stroke="rgb(100,138,166)" stroke-width="1" opacity="1" d="M 305.5 369 L 311 369.5 L 305.5 370 L 305.5 369 Z " /><path fill="rgb(100,138,166)" stroke="rgb(100,138,166)" stroke-width="1" opacity="1" d="M 344.5 369 L 348 369.5 L 344.5 370 L 344.5 369 Z " /><path fill="rgb(100,138,166)" stroke="rgb(100,138,166)" stroke-width="1" opacity="1" d="M 352.5 369 L 355 369.5 L 352.5 370 L 352.5 369 Z " /><path fill="rgb(100,138,166)" stroke="rgb(100,138,166)" stroke-width="1" opacity="1" d="M 269.5 387 L 270.5 389 L 269.5 387 Z " /><path fill="rgb(100,138,166)" stroke="rgb(100,138,166)" stroke-width="1" opacity="1" d="M 391.5 389 L 389.5 392 L 391.5 389 Z " /><path fill="rgb(221,30,38)" stroke="rgb(221,30,38)" stroke-width="1" opacity="1" d="M 278.5 268 L 383.5 268 L 392 273.5 L 395 280.5 L 395 382.5 Q 393.2 389.7 387.5 393 L 382.5 395 L 280.5 395 L 271 389.5 L 268 383.5 L 268 278.5 L 272.5 271 L 278.5 268 Z M 295 292 L 288 297 L 289 302 L 292 304 L 301 304 L 302 306 L 302 367 L 306 370 L 311 370 L 314 368 L 315 366 L 315 295 L 312 292 L 295 292 Z M 357 292 L 350 296 Q 332 310 326 335 Q 323 354 332 363 Q 337 368 345 370 L 355 370 L 364 366 Q 371 360 374 350 L 374 339 L 370 328 L 364 321 L 352 318 L 348 319 L 352 312 L 361 304 L 363 301 L 362 294 L 357 292 Z " /><path fill="rgb(221,30,38)" stroke="rgb(221,30,38)" stroke-width="1" opacity="1" d="M 345.5 331 Q 355.3 329.3 358 334.5 Q 361.7 338.8 360 348.5 L 357 355 L 353.5 357 L 346.5 357 L 341 352.5 Q 337.5 348.5 339 339.5 Q 340.4 333.4 345.5 331 Z " /><path fill="rgb(254,254,254)" stroke="rgb(254,254,254)" stroke-width="1" opacity="1" d="M 0 0 L 407 0 L 407 407 L 0 407 L 0 0 Z M 33 21 L 31 22 L 31 23 L 38 22 L 33 21 Z M 372 21 L 372 22 L 376 22 L 372 21 Z M 29 23 L 27 24 L 22 30 L 23 32 L 26 26 L 30 24 L 29 23 Z M 379 23 L 379 25 Q 378 28 382 26 L 382 29 L 384 29 L 385 30 L 383 25 L 379 23 Z M 35 25 L 31 27 L 25 35 L 25 374 L 27 378 L 35 383 L 267 383 L 266 389 L 270 390 Q 273 391 272 397 L 264 391 L 268 397 L 275 400 L 281 400 L 274 398 L 279 396 L 281 397 Q 287 399 289 396 L 376 397 L 289 397 L 289 398 L 383 398 L 385 396 L 388 397 L 387 396 L 392 393 L 396 387 L 396 389 L 397 389 L 396 383 L 398 383 L 399 379 L 398 377 L 399 376 L 399 289 L 397 290 L 397 381 L 396 381 L 396 289 L 397 288 Q 398 283 396 282 L 398 273 L 399 277 L 398 281 L 399 285 L 400 282 Q 401 274 398 270 L 392 264 L 390 265 L 395 268 L 397 272 L 395 272 L 395 275 L 394 273 L 392 271 Q 389 270 391 269 Q 390 266 389 268 L 385 267 L 383 266 L 383 35 L 381 31 L 374 25 L 35 25 Z M 22 32 L 21 37 L 22 37 L 22 32 Z M 387 33 L 386 37 L 387 37 L 387 33 Z M 388 259 L 387 264 L 390 264 L 388 263 L 388 259 Z M 385 264 L 386 266 L 388 266 L 385 264 Z M 22 371 L 21 376 L 22 376 L 22 371 Z M 26 379 L 24 382 L 30 385 L 29 384 Q 30 381 26 382 L 26 379 Z M 400 380 L 399 387 L 400 387 L 400 380 Z M 266 385 L 265 388 L 266 388 L 266 385 Z M 35 386 L 35 387 L 38 387 L 35 386 Z M 260 387 Q 259 389 262 388 L 264 390 Q 265 385 260 387 Z M 399 387 L 397 391 L 396 389 L 395 391 L 389 396 L 391 397 L 388 398 L 388 399 L 395 397 L 399 391 L 399 387 Z M 385 398 L 380 399 L 380 400 L 387 400 L 385 398 Z " /><path fill="rgb(254,254,254)" stroke="rgb(254,254,254)" stroke-width="1" opacity="1" d="M 169.5 65 L 172.5 66 L 238.5 66 L 240.5 65 L 242 67.5 L 241 69.5 L 242 71.5 L 241 72.5 L 241 135.5 L 241.5 137 L 240 137.5 L 242 138.5 L 240.5 140 L 167.5 140 L 166.5 138 L 168 137.5 L 166 136.5 L 167 135.5 L 167 68.5 L 166 66 L 169.5 65 Z M 171 70 L 170 126 L 171 126 L 171 70 Z M 238 70 L 237 126 L 238 126 L 238 70 Z M 238 127 L 237 130 L 238 130 L 238 127 Z M 238 131 L 237 135 L 238 135 L 238 131 Z M 171 132 L 170 135 L 171 135 L 171 132 Z M 172 135 L 172 136 L 237 136 L 172 135 Z " /><path fill="rgb(254,254,254)" stroke="rgb(254,254,254)" stroke-width="1" opacity="1" d="M 268 65 L 271.5 66 L 334.5 66 L 336.5 65 L 338.5 65 L 340.5 66 L 343 65 L 343 135.5 L 342 136.5 L 343 140 L 339.5 139 L 338.5 140 L 269.5 140 L 268 136.5 L 268 65 Z M 338 67 L 338 76 L 339 76 Q 340 69 338 67 Z M 341 67 L 340 131 L 341 131 L 341 67 Z M 273 69 L 272 135 L 273 135 L 273 69 Z M 339 127 L 338 135 L 273 136 L 339 136 L 339 127 Z M 341 132 L 340 136 L 341 136 L 341 132 Z " /><path fill="rgb(254,254,254)" stroke="rgb(254,254,254)" stroke-width="1" opacity="1" d="M 66 166 L 70.5 167 L 72.5 167 L 136.5 167 L 139 166 L 140 168.5 L 140 239.5 L 138.5 242 Q 137 238.5 135.5 241 L 72.5 241 L 71.5 242 L 68.5 241 L 66 242 L 65 239.5 L 65 168.5 L 66 166 Z M 71 170 L 71 171 L 127 171 L 71 170 Z M 129 170 L 129 171 L 131 171 L 129 170 Z M 133 170 L 133 171 L 135 171 L 133 170 Z M 136 171 L 135 237 L 136 237 L 136 171 Z M 68 172 L 67 239 L 68 239 L 68 172 Z M 70 237 L 71 239 L 72 238 L 130 238 L 70 237 Z M 132 237 L 132 238 L 135 238 L 132 237 Z " /><path fill="rgb(254,254,254)" stroke="rgb(254,254,254)" stroke-width="1" opacity="1" d="M 168.5 166 L 169.5 167 L 242 167 L 241 169.5 L 241 239.5 L 241.5 241 L 171.5 241 L 168.5 242 L 166 240.5 L 167 239.5 L 167 168.5 L 166.5 167 L 168.5 166 Z M 172 170 L 172 171 L 236 171 L 172 170 Z M 171 171 L 170 236 L 171 236 L 171 171 Z M 238 172 L 237 237 L 238 237 L 238 172 Z M 173 237 L 173 238 L 237 238 L 173 237 Z " /><path fill="rgb(254,254,254)" stroke="rgb(254,254,254)" stroke-width="1" opacity="1" d="M 269 166 L 271.5 167 L 335.5 167 L 337.5 167 L 342 166 L 343 168.5 L 343 239.5 L 342 242 L 337.5 241 L 335.5 241 L 271.5 241 L 269 242 L 268 239.5 L 268 168.5 L 269 166 Z M 338 168 L 337 170 L 335 171 L 338 171 L 339 172 L 338 168 Z M 276 170 L 276 171 L 334 171 L 276 170 Z M 273 171 L 272 237 L 273 237 L 273 171 Z M 341 176 L 340 240 L 341 240 L 341 176 Z M 275 237 L 275 238 L 337 238 L 338 239 L 338 237 L 275 237 Z " /><path fill="rgb(254,254,254)" stroke="rgb(254,254,254)" stroke-width="1" opacity="1" d="M 66.5 268 L 68.5 269 L 69.5 268 L 136.5 268 L 140 269.5 L 140 339.5 L 139 340.5 L 140 343 L 136.5 342 L 135.5 343 L 71.5 343 L 69.5 343 L 67.5 342 L 65 343 L 66 340.5 L 65 338.5 L 65 336.5 L 65 272.5 L 66 271.5 L 65 269.5 L 66.5 268 Z M 68 272 L 67 335 L 68 335 L 68 272 Z M 70 272 L 70 273 L 135 273 L 70 272 Z M 136 273 L 135 338 L 131 339 L 134 339 L 133 341 L 135 341 L 136 339 L 136 273 Z M 68 337 L 67 341 L 68 341 L 68 337 Z M 81 340 L 81 341 L 127 341 L 81 340 Z " /><path fill="rgb(254,254,254)" stroke="rgb(254,254,254)" stroke-width="1" opacity="1" d="M 167.5 268 L 240.5 268 L 242 269.5 L 240 270.5 L 242 271.5 L 241 272.5 L 241 335.5 L 242 337.5 L 241 339.5 L 242 341.5 L 240.5 343 L 167.5 343 L 166 340.5 L 167 339.5 L 167 272.5 L 166.5 271 L 168 270.5 L 166 269.5 L 167.5 268 Z M 172 272 L 172 273 L 237 273 L 172 272 Z M 238 273 L 237 338 L 238 338 L 238 273 Z M 171 276 L 170 331 L 171 331 L 171 276 Z M 171 335 L 170 339 L 172 339 L 171 335 Z M 174 338 L 174 339 L 176 339 L 174 338 Z M 178 340 L 178 341 L 239 341 L 178 340 Z " /><path fill="rgb(254,254,254)" stroke="rgb(254,254,254)" stroke-width="1" opacity="1" d="M 295 294 L 310.5 295 L 313 297.5 Q 314.3 302.3 312 303.5 L 312 305.5 L 312 350.5 L 313 351.5 L 313 360.5 L 312 360.5 L 311.5 354 L 311 363.5 L 312 367 L 307.5 368 L 305 367 L 303 360.5 L 304 359.5 L 304 303 L 296.5 303 L 296 301.5 L 292 299 Q 290.9 296.3 293.5 297 L 295 294 Z M 301 297 L 297 299 L 304 300 L 307 306 L 307 363 L 309 364 L 310 362 L 310 303 L 309 299 L 308 301 L 306 300 L 308 299 L 301 297 Z " /><path fill="rgb(254,254,254)" stroke="rgb(254,254,254)" stroke-width="1" opacity="1" d="M 357.5 294 Q 360.8 294.8 360 299.5 L 359 302 L 356 302.5 L 358 303.5 L 355 304 L 353.5 307 Q 351.3 307.8 352 305.5 Q 349.8 304.3 352.5 303 L 354 302.5 L 351.5 301 L 351 303 Q 348.3 301.9 349 304.5 L 348 307 Q 350.7 305.9 350 308.5 L 352 308.5 L 348.5 313 Q 347.3 310.8 346 313.5 L 348 314.5 L 345 320 Q 341.2 318.5 342 321.5 Q 346.2 323.7 344.5 326 L 355.5 326 L 363 331.5 L 365 338.5 L 365 349.5 L 361 359 L 358 359 Q 359.3 362 355.5 361 Q 353.8 363.8 348.5 363 L 342 361 Q 340.9 363.7 343.5 363 L 350.5 365 L 358.5 363 L 365 356.5 Q 370.2 350.7 368 337.5 L 367 337.5 L 366.5 348 L 365 334.5 L 366 334.5 L 366.5 337 L 367 333.5 L 363 327 Q 360 328.3 361 324.5 L 359.5 325 L 347.5 324 L 345 323 Q 343.8 320 347.5 321 L 351.5 322 L 355.5 321 L 359.5 322 L 363.5 326 L 367 326 L 368 332 L 370 332.5 Q 367.5 334 371 335.5 L 372 347.5 L 369 353.5 L 369.5 355 L 368 354.5 L 368 358.5 L 362.5 364 L 363.5 361 L 359 364.5 Q 359.8 366.8 357.5 366 L 350.5 368 L 343 368 L 342.5 365 L 341.5 367 L 338 364.5 L 339.5 364 L 342 365 Q 343.3 362 339.5 363 L 337 362 L 336.5 364 L 336 362.5 L 336.5 361 L 335 360.5 L 335.5 359 L 333.5 360 L 332 357.5 L 333 354 Q 329.3 355.5 330 352.5 L 328 350.5 L 328 335.5 L 331.5 325 L 332.5 328 L 333 324.5 L 332 321.5 L 334.5 317 Q 335.8 319.3 337 316.5 L 336.5 315 L 339 313.5 L 338 311.5 L 340 310.5 L 339 312.5 L 340.5 312 L 342 311.5 Q 339.8 310.3 342.5 309 L 344 309.5 L 345 305.5 L 344.5 304 Q 345.7 306.3 347 303.5 L 346.5 302 L 348 302.5 Q 347.3 299.9 350 301 L 350 298.5 L 352 298.5 L 353 295 L 357 296 L 357.5 294 Z M 347 308 L 345 311 L 347 310 L 347 308 Z M 345 311 L 339 317 L 339 319 L 341 318 L 343 319 L 345 313 L 345 311 Z M 339 319 L 337 322 L 339 321 L 339 319 Z M 335 320 L 335 325 L 331 336 L 332 348 L 333 336 L 334 336 L 333 338 L 335 338 L 337 335 L 338 338 Q 339 342 337 344 L 338 347 L 337 353 L 345 358 L 344 360 L 350 361 Q 351 363 352 361 L 350 360 L 350 359 L 354 360 Q 356 361 355 359 L 359 356 L 361 352 L 361 354 L 362 354 L 361 350 L 362 348 Q 364 341 361 340 L 362 338 L 360 332 Q 358 327 357 330 L 356 328 L 352 329 Q 345 331 344 328 L 338 332 L 337 330 L 342 328 L 343 326 L 336 327 L 337 324 L 335 320 Z M 330 341 L 329 347 L 330 347 L 330 341 Z M 334 341 L 333 348 L 334 348 L 334 341 Z M 333 348 L 333 354 L 336 356 L 335 351 L 333 348 Z M 339 355 L 341 358 L 342 358 L 339 355 Z M 337 357 L 336 359 L 340 361 L 340 359 L 337 357 Z " /><path fill="rgb(254,254,254)" stroke="rgb(254,254,254)" stroke-width="1" opacity="1" d="M 308.5 303 L 309 353.5 L 308 353.5 L 308.5 303 Z " /><path fill="rgb(254,254,254)" stroke="rgb(254,254,254)" stroke-width="1" opacity="1" d="M 273.5 394 L 276 394.5 L 273.5 395 L 273.5 394 Z " /></svg>